<?xml version="1.0" encoding="UTF-8" standalone="no"?>
<svg
   version="1.1"
   id="Layer_1"
   x="0px"
   y="0px"
   width="977.01166"
   viewBox="0 0 977.01168 267.93024"
   enable-background="new 0 0 1280 640"
   xml:space="preserve"
   sodipodi:docname="logo.svg"
   height="267.93024"
   inkscape:version="1.4 (e7c3feb1, 2024-10-09)"
   xmlns:inkscape="http://www.inkscape.org/namespaces/inkscape"
   xmlns:sodipodi="http://sodipodi.sourceforge.net/DTD/sodipodi-0.dtd"
   xmlns="http://www.w3.org/2000/svg"
   xmlns:svg="http://www.w3.org/2000/svg"><defs
   id="defs15" /><sodipodi:namedview
   id="namedview15"
   pagecolor="#ffffff"
   bordercolor="#000000"
   borderopacity="0.25"
   inkscape:showpageshadow="2"
   inkscape:pageopacity="0.0"
   inkscape:pagecheckerboard="true"
   inkscape:deskcolor="#d1d1d1"
   labelstyle="default"
   inkscape:clip-to-page="true"
   inkscape:zoom="0.82511409"
   inkscape:cx="444.181"
   inkscape:cy="276.32542"
   inkscape:window-width="1728"
   inkscape:window-height="1051"
   inkscape:window-x="0"
   inkscape:window-y="38"
   inkscape:window-maximized="1"
   inkscape:current-layer="Layer_1"><inkscape:page
     x="0"
     y="0"
     width="977.01166"
     height="267.93024"
     id="page184"
     margin="157.55397 130.89099 218.15166 176.94522"
     bleed="0" /></sodipodi:namedview>













<g
   id="g184"
   transform="translate(-173.30937,-156.34201)"><path
     fill="#7e7e7e"
     opacity="1"
     stroke="none"
     d="m 308.97278,177.90472 c 17.99676,7.68143 27.75796,21.20108 28.46506,40.17694 0.53549,14.37041 -5.36179,32.96618 -30.48276,43.42103 0,8.845 9.4e-4,17.82739 -1.8e-4,26.80978 -0.003,20.32239 0.0827,40.64526 -0.0304,60.96704 -0.16141,28.99146 -22.65058,53.09476 -51.67882,55.56534 -28.29451,2.40808 -54.8255,-17.51663 -59.6477,-45.64322 -1.56073,-9.10333 -1.08474,-18.57611 -1.29104,-27.88544 -0.18817,-8.49124 -0.0855,-16.99029 -0.0231,-25.48526 0.0486,-6.62564 2.19012,-12.15277 8.81018,-14.84451 6.43426,-2.61621 11.55766,-0.21845 16.12433,4.42432 8.87666,9.02456 17.98275,17.82702 26.73155,26.97241 5.29729,5.53738 4.92103,13.58383 -0.32417,18.84982 -5.10209,5.12228 -13.30689,5.16727 -18.93477,0.0845 -1.32842,-1.19973 -2.60375,-2.45825 -4.01963,-3.79977 -4.19482,20.11057 5.54445,36.52847 23.30783,39.71628 17.26474,3.09829 33.67295,-10.43952 33.88056,-28.65476 0.31894,-27.98129 0.0303,-55.96917 0.17996,-83.95331 0.0163,-3.03805 -1.45971,-3.86218 -3.73407,-4.87646 -17.3865,-7.75383 -26.8045,-21.57144 -27.0426,-40.23633 -0.38594,-30.25505 28.43234,-50.44548 55.53851,-42.91345 1.27741,0.35495 2.53296,0.78867 4.17133,1.30508 m -12.26798,24.71062 c -8.15664,-1.02061 -14.45099,1.92597 -18.11438,8.47995 -3.19967,5.72438 -2.47555,13.69937 1.69828,18.70317 4.70697,5.64296 12.11016,7.70114 18.89212,5.25226 6.69925,-2.41902 10.90701,-8.72763 10.84134,-16.25424 -0.067,-7.68474 -4.25113,-13.01224 -13.31736,-16.18114 z"
     id="path2" /><path
     fill="#576281"
     opacity="1"
     stroke="none"
     d="m 921.6648,276.19629 c 9.20068,5.32449 12.67584,13.93567 12.95684,23.2908 0.59912,19.94913 0.18323,39.92871 0.18323,60.2066 -8.44482,0 -16.84277,0 -25.80951,0 0,-3.48809 0,-6.93325 6e-5,-10.37841 1.8e-4,-12.33139 0.0701,-24.66343 -0.048,-36.99369 -0.03,-3.13766 -0.34845,-6.34362 -1.07874,-9.3876 -1.2163,-5.06964 -4.25573,-8.57834 -9.72161,-9.47717 -5.45923,-0.89768 -10.42634,0.55777 -12.95081,5.36432 -2.23279,4.25122 -3.90631,9.29623 -4.05945,14.04776 -0.49811,15.46514 -0.18646,30.95639 -0.18646,46.78631 -8.72547,0 -17.27094,0 -26.14148,0 0,-11.53589 0.0776,-23.00235 -0.0297,-34.46704 -0.0624,-6.65503 -0.0705,-13.34299 -0.74115,-19.95132 -0.75445,-7.43387 -4.68597,-11.23612 -11.20483,-11.97861 -6.27795,-0.715 -12.19531,2.76193 -14.26929,9.32526 -1.27691,4.04092 -1.71563,8.47833 -1.77575,12.74835 -0.20624,14.63897 -0.0792,29.28265 -0.0792,44.298 -8.76904,0 -17.32006,0 -26.18798,0 0,-28.06088 0,-56.11133 0,-84.39847 8.67627,0 17.117,0 26.03759,0 0,3.7815 0,7.53171 0,12.82215 7.62769,-9.33875 16.03632,-14.66654 26.97559,-14.97482 11.39191,-0.32105 19.93738,4.34097 25.3587,15.2051 11.31116,-14.77392 25.42792,-18.81936 42.77192,-12.08752 z"
     id="path3" /><path
     fill="#566181"
     opacity="1"
     stroke="none"
     d="m 618.95898,294.20673 c 0.48645,4.37652 1.23395,8.33731 1.26349,12.30346 0.13135,17.62766 0.0569,35.25687 0.0569,53.19617 -8.57843,0 -16.99701,0 -26.17328,0 0,-1.64728 -0.003,-3.39896 4.9e-4,-5.1506 0.0251,-13.65958 0.10571,-27.31946 0.0383,-40.97858 -0.0164,-3.30872 -0.25257,-6.66492 -0.85852,-9.91141 -1.04456,-5.59683 -4.37171,-9.31763 -10.15167,-10.28 -5.74579,-0.95666 -11.07386,0.66031 -13.90625,5.68189 -2.26795,4.0209 -3.8194,8.96231 -3.98456,13.55649 -0.50257,13.97464 -0.17945,27.97897 -0.17792,41.97174 1.8e-4,1.62756 -6e-5,3.25512 -6e-5,5.15023 -8.80847,0 -17.20398,0 -25.85736,0 0,-41.74536 0,-83.31729 0,-125.22931 8.4519,0 16.84344,0 25.64978,0 0,17.32816 0,34.56888 0,53.50568 10.57586,-14.02847 23.32641,-17.91546 38.5133,-12.97272 8.98462,2.92423 13.23725,10.09833 15.58728,19.15696 z"
     id="path4" /><path
     fill="#566181"
     opacity="1"
     stroke="none"
     d="m 1073.2649,324.01446 c 0,12.1301 0,23.76282 0,35.68943 -8.7665,0 -17.186,0 -25.9377,0 0,-28.02991 0,-56.07639 0,-84.4148 8.4339,0 16.8414,0 25.9135,0 0,3.86435 0,7.72907 0,12.89878 1.7687,-1.9827 2.6086,-2.87406 3.3932,-3.81156 8.7139,-10.41113 23.022,-14.26294 35.7409,-9.37817 12.0197,4.61627 15.9268,14.95285 16.3164,26.35019 0.6593,19.28924 0.1811,38.6174 0.1811,58.2912 -8.3998,0 -16.7987,0 -25.6627,0 -0.067,-1.47525 -0.2008,-3.07346 -0.2028,-4.67179 -0.017,-13.66018 0.046,-27.32074 -0.051,-40.98022 -0.022,-3.13934 -0.3043,-6.32883 -0.929,-9.40128 -1.4002,-6.8873 -4.9222,-10.33215 -10.991,-11.26745 -6.0354,-0.93009 -12.2714,1.87924 -14.9021,7.7163 -1.66,3.68302 -2.2819,7.93146 -2.8057,11.99891 -0.4429,3.44018 -0.075,6.98468 -0.065,10.98046 z"
     id="path5" /><path
     fill="#576282"
     opacity="1"
     stroke="none"
     d="m 990.14636,306.20642 c 4.03961,-0.53244 7.63629,-1.00903 11.17574,-1.47803 0.2374,-8.53781 -4.09651,-13.22201 -12.5486,-13.69104 -9.57208,-0.53116 -18.45557,1.93042 -26.80213,6.5102 -1.13018,0.62014 -2.21203,1.32849 -4.03039,2.42773 0,-6.45538 -0.10242,-12.19766 0.098,-17.92938 0.0344,-0.98511 1.15955,-2.44315 2.11493,-2.80817 14.06427,-5.37359 28.45251,-8.24737 43.45389,-4.55179 13.4842,3.32181 20.1973,12.66654 22.2078,25.84632 0.575,3.77002 0.7219,7.63321 0.7409,11.45529 0.079,15.79065 0.033,31.58191 0.033,47.69458 -8.374,0 -16.4345,0 -25.1099,0 0,-3.40286 0,-6.76636 0,-11.78085 -7.30042,10.61331 -16.23798,14.59671 -27.35511,14.13186 -12.11438,-0.5065 -21.25391,-7.4349 -23.82635,-18.33325 -3.13593,-13.28525 1.6604,-26.04318 12.92065,-31.02414 6.56183,-2.90259 13.99823,-3.84396 21.06116,-5.58667 1.76825,-0.43631 3.61364,-0.55969 5.86645,-0.88266 m -2.9068,37.02713 c 10.91217,-1.76681 16.7367,-11.39627 13.7905,-23.4639 -6.3071,1.0181 -12.71903,1.77872 -18.99466,3.15863 -4.4975,0.98893 -7.67657,3.82013 -8.14508,8.85584 -0.70282,7.55466 3.45471,11.40545 13.34924,11.44943 z"
     id="path6" /><path
     fill="#576281"
     opacity="1"
     stroke="none"
     d="m 710.87219,325.04132 c -16.45642,6e-5 -32.42877,6e-5 -48.40655,6e-5 0.24939,10.43152 6.47595,16.94806 17.13354,17.99341 10.4737,1.02731 20.53742,-0.34131 30.36249,-6.43784 0,6.332 0.13922,11.90241 -0.12402,17.45374 -0.0493,1.03952 -1.52124,2.49533 -2.65381,2.92688 -16.07007,6.12354 -32.49066,7.82544 -48.5874,0.93832 -5.53724,-2.36914 -10.88153,-6.76901 -14.5785,-11.57592 -13.42028,-17.44944 -9.84723,-48.45679 6.58014,-63.03571 19.33655,-17.16074 51.68817,-12.35699 62.35108,9.30579 4.96472,10.08642 4.49005,20.93472 4.43439,32.43121 -2.19159,0 -4.1095,0 -6.51136,6e-5 m -21.62781,-16.0788 c 1.21387,-0.14743 2.4278,-0.29489 3.5777,-0.43457 0.0623,-11.66186 -4.79199,-17.57235 -14.10498,-17.6405 -8.83435,-0.0647 -16.03699,7.77222 -16.29608,18.07507 8.62915,0 17.25403,0 26.82336,0 z"
     id="path7" /><path
     fill="#576181"
     opacity="1"
     stroke="none"
     d="m 357.99588,317.00006 c 0,-7.62369 0,-14.74743 0,-22.34393 -4.93286,0 -9.3508,0 -14.04617,0 0,-6.73871 0,-12.99725 0,-19.63886 4.599,0 9.03985,0 14.11996,0 -0.93829,-15.48901 0.30173,-30.04428 15.74411,-38.20755 10.34983,-5.47122 21.29938,-5.50509 32.43317,-2.77192 0,6.85208 0,13.2677 0,19.71899 -19.34323,-2.60602 -23.84525,1.72169 -21.7598,21.16344 6.15943,0 12.39655,0 18.89682,0 0,6.6456 0,12.75781 0,19.47317 -6.15338,0 -12.39056,0 -19.06335,0 0,22.01785 0,43.44568 0,65.24716 -8.83164,0 -17.23206,0 -26.32474,0 0,-13.95932 0,-28.04992 0,-42.6405 z"
     id="path8" /><path
     fill="#576282"
     opacity="1"
     stroke="none"
     d="m 505.63602,358.74463 c -16.00229,5.02118 -31.45545,4.10568 -46.8631,-0.95081 0,-7.0043 0,-13.63101 0,-20.23687 6.17673,2.03765 12.0889,4.77154 18.28329,5.79138 5.25238,0.86477 10.91269,0.21154 16.22299,-0.72803 2.00196,-0.35422 4.68143,-3.25037 4.94205,-5.26123 0.25452,-1.96344 -1.67764,-5.07053 -3.54941,-6.25989 -3.30093,-2.0975 -7.29068,-3.10666 -10.98309,-4.59363 -3.85117,-1.5509 -7.80328,-2.90274 -11.51477,-4.73876 -8.84952,-4.37769 -13.41617,-11.42386 -13.38425,-21.54191 0.0318,-10.06289 4.61515,-17.29657 13.20887,-21.83194 12.04525,-6.35693 24.97421,-6.22171 38.01138,-4.02252 2.77847,0.46869 5.5032,1.25525 8.58401,1.97248 0,6.60821 0,13.19433 0,18.79751 -7.29852,-1.35007 -14.83602,-2.98816 -22.45599,-4.01349 -2.46399,-0.33157 -5.31912,0.54288 -7.68912,1.57132 -4.79782,2.08188 -5.44146,7.15482 -1.2633,10.30609 2.3341,1.7605 5.23117,2.83545 7.97476,3.97892 5.05692,2.10751 10.41318,3.60452 15.24719,6.11987 17.40528,9.05688 18.29059,31.57153 1.79364,42.31201 -1.93817,1.26187 -4.12652,2.13947 -6.56515,3.3295 z"
     id="path9" /><path
     fill="#566180"
     opacity="1"
     stroke="none"
     d="m 788.23096,285.01404 c 1.2e-4,4.62561 1.2e-4,8.75616 1.2e-4,13.16461 -2.78784,-0.62921 -5.01862,-1.2327 -7.28577,-1.62732 -10.55084,-1.83667 -19.15173,4.03259 -20.83624,15.02033 -1.02594,6.69192 -0.91583,13.57955 -1.03235,20.38415 -0.15643,9.13083 -0.0388,18.26633 -0.0388,27.72128 -8.6792,0 -17.07159,0 -25.78869,0 0,-28.02887 0,-56.05807 0,-84.38351 8.42724,0 16.82068,0 25.54394,0 0,4.66837 0,9.27243 0,15.44888 1.45496,-2.44308 2.18836,-3.57 2.81977,-4.75152 4.52453,-8.46701 11.52777,-12.39783 21.16503,-12.28183 4.33747,0.0522 6.12324,1.45065 5.48035,5.82147 -0.23968,1.62891 -0.0316,3.32367 -0.0274,5.48346 z"
     id="path10" /><path
     fill="#556080"
     opacity="1"
     stroke="none"
     d="m 416.00006,334 c 0,-19.78061 0,-39.06122 0,-58.66598 8.67661,0 17.06842,0 25.82361,0 0,27.99154 0,56.00778 0,84.34835 -8.34531,0 -16.74838,0 -25.82361,0 0,-8.34927 0,-16.76584 0,-25.68237 z"
     id="path11" /><path
     fill="#586382"
     opacity="1"
     stroke="none"
     d="m 441.04932,257.01315 c -7.7714,6.64551 -18.13565,6.23603 -23.85755,-0.65844 -4.88601,-5.88729 -3.6665,-14.51633 2.65836,-18.81037 6.24872,-4.24234 15.686,-3.5627 20.81103,1.49878 4.70536,4.647 4.94293,11.26535 0.38816,17.97003 z"
     id="path12" /></g>

</svg>
