<?xml version="1.0" encoding="UTF-8"?>
<svg enable-background="new 0 0 31.586 31.586" version="1.1" viewBox="0 0 31.586 31.586" xml:space="preserve" xmlns="http://www.w3.org/2000/svg">
<g fill="#6d87d2">
	<path d="m29.328 2.255h-27.072c-1.246 0-2.256 1.009-2.256 2.255v22.564c0 1.245 1.01 2.256 2.256 2.256h27.072c1.244 0 2.258-1.012 2.258-2.256v-22.564c0-1.246-1.014-2.255-2.258-2.255zm-21.995 1.694c0.622 0 1.128 0.502 1.128 1.128 0 0.623-0.506 1.125-1.128 1.125-0.626 0-1.131-0.502-1.131-1.125 0-0.626 0.505-1.128 1.131-1.128zm-3.386 0c0.623 0 1.127 0.502 1.127 1.128 0 0.623-0.504 1.125-1.127 1.125-0.624 0-1.129-0.502-1.129-1.125 0-0.626 0.505-1.128 1.129-1.128zm25.381 23.126h-27.072v-19.155h27.072v19.155z"/>
	<polygon points="12.645 12.556 5.4 9.243 5.4 10.84 11.003 13.235 11.003 13.266 5.4 15.66 5.4 17.256 12.645 13.943"/>
	<rect x="16.056" y="12.488" width="3.946" height="1.522"/>

</g>
</svg>
